<svg width="181" height="105" viewBox="0 0 181 105" fill="none" xmlns="http://www.w3.org/2000/svg">
<path d="M154.01 46.6978C157.043 59.9931 147.688 71.6306 135.663 72.8614C134.031 73.0284 132.408 73.0563 130.778 73.057C113.634 73.0651 96.49 73.0683 79.346 73.0647C78.7553 73.0646 78.145 73.1841 77.5274 72.8932C77.4867 72.0179 78.1945 71.5396 78.6255 70.9535C81.3478 67.2511 81.3614 67.2617 85.934 67.2626C101.703 67.266 117.472 67.2097 133.241 67.2992C140.299 67.3393 146.901 62.2433 148.538 55.1196C150.61 46.1104 144.093 37.01 134.867 36.1955C134.824 36.1917 134.781 36.1919 134.738 36.1876C131.207 35.8309 130.649 35.2163 130.639 31.6714C130.602 18.8271 121.092 7.83866 108.434 6.01409C95.7539 4.1864 83.9894 11.4422 79.9142 23.6033C79.8461 23.8068 79.7748 24.0092 79.7078 24.213C78.5394 27.7639 77.7804 28.3139 73.96 28.4437C67.6135 28.6593 62.5831 31.3995 58.8551 36.4918C58.1642 37.4356 57.466 37.8509 56.3099 37.7787C54.8632 37.6883 53.4065 37.7569 52.0277 37.7569C51.6213 37.0426 52.0243 36.6178 52.2564 36.1949C56.4721 28.515 62.88 23.9682 71.6089 22.9087C73.4679 22.6831 74.3436 22.0196 75.0941 20.1846C79.5804 9.21554 87.6996 2.46339 99.4338 0.455505C116.783 -2.51317 133.202 9.35145 135.922 26.6478C136.061 27.5358 136.249 28.4425 136.197 29.3277C136.136 30.3607 136.641 30.6399 137.497 30.8388C146.094 32.8371 151.609 38.0783 154.01 46.6978Z" fill="#1A2420"/>
<path d="M38.5387 83.6756C38.0743 83.8804 37.7546 84.2404 37.2773 84.1044C36.5659 82.6987 36.6688 82.0625 37.9398 81.3233C42.8699 78.4562 47.8253 75.6327 52.7668 72.7853C54.1116 72.0105 54.2593 73.3976 55.228 74.075C49.5632 77.3339 44.0912 80.4818 38.5387 83.6756Z" fill="#84C225"/>
<path d="M27.0447 80.6863C25.9859 80.6441 25.5643 79.6373 26.1621 78.7336C26.3431 78.46 26.6332 78.2281 26.9219 78.0609C31.3368 75.503 35.7588 72.9574 40.1832 70.416C40.4351 70.2713 40.6983 70.0931 41.022 70.195C41.5062 71.6515 41.1836 72.5702 39.9541 73.2763C35.6784 75.7319 31.4041 78.1898 27.0447 80.6863Z" fill="#84C225"/>
<path d="M1.76318 101.489L1.26387 99.367L6.78745 93.7966H9.62725L1.76318 101.489ZM0 104.719V93.7966H2.3405V104.719H0ZM7.08391 104.719L2.99584 99.289L4.60298 97.9003L9.8613 104.719H7.08391Z" fill="#84C225"/>
<path d="M11.5044 104.719V93.7966H13.8449V102.613H18.7912V104.719H11.5044Z" fill="#84C225"/>
<path d="M20.967 104.719V93.7966H28.3473V95.8563H23.2451V102.659H28.4566V104.719H20.967ZM22.0592 100.147V98.15H27.5984V100.147H22.0592Z" fill="#84C225"/>
<path d="M33.9765 104.719L29.6232 93.7966H32.1041L34.3822 99.7103C34.507 100.033 34.611 100.319 34.6942 100.568C34.7879 100.808 34.8659 101.037 34.9283 101.255C35.0011 101.463 35.0687 101.671 35.1311 101.879C35.1935 102.077 35.256 102.295 35.3184 102.535L34.8659 102.55C34.9491 102.228 35.0323 101.931 35.1155 101.661C35.1987 101.38 35.2924 101.089 35.3964 100.787C35.5004 100.485 35.6304 100.126 35.7865 99.7103L37.9397 93.7966H40.4051L36.0205 104.719H33.9765Z" fill="#84C225"/>
<path d="M41.9949 104.719V93.7966H49.3753V95.8563H44.273V102.659H49.4845V104.719H41.9949ZM43.0871 100.147V98.15H48.6263V100.147H43.0871Z" fill="#84C225"/>
<path d="M51.8993 104.719V93.7966H56.7364C57.4125 93.7966 58.0263 93.9527 58.5776 94.2647C59.1289 94.5664 59.5606 94.9773 59.8727 95.4974C60.1951 96.0175 60.3564 96.6104 60.3564 97.2762C60.3564 97.9315 60.1951 98.5296 59.8727 99.0706C59.5606 99.6011 59.1289 100.022 58.5776 100.334C58.0263 100.646 57.4125 100.803 56.7364 100.803H54.1618V104.719H51.8993ZM58.0939 104.719L55.3165 99.7883L57.7194 99.3982L60.8088 104.735L58.0939 104.719ZM54.1618 98.8989H56.6272C56.908 98.8989 57.1525 98.8365 57.3605 98.7117C57.579 98.5765 57.7454 98.3944 57.8598 98.1656C57.9742 97.9263 58.0315 97.6611 58.0315 97.3698C58.0315 97.0577 57.9638 96.7873 57.8286 96.5584C57.6934 96.3296 57.4957 96.1527 57.2357 96.0279C56.9756 95.8927 56.674 95.8251 56.3307 95.8251H54.1618V98.8989Z" fill="#84C225"/>
<path d="M62.8247 104.719V93.7966H67.5681C68.2963 93.7966 68.91 93.9059 69.4093 94.1243C69.919 94.3324 70.3039 94.6392 70.564 95.0449C70.824 95.4506 70.9541 95.9343 70.9541 96.496C70.9541 97.1201 70.798 97.6403 70.486 98.0563C70.1739 98.4724 69.7266 98.7585 69.1441 98.9145L69.1285 98.6025C69.607 98.7169 70.0283 98.9041 70.3923 99.1642C70.7564 99.4242 71.0373 99.7467 71.2349 100.132C71.4326 100.516 71.5314 100.953 71.5314 101.442C71.5314 101.983 71.443 102.462 71.2661 102.878C71.0893 103.283 70.8292 103.622 70.486 103.892C70.1427 104.162 69.737 104.37 69.2689 104.516C68.8112 104.651 68.2963 104.719 67.7242 104.719H62.8247ZM65.0716 102.691H67.6306C67.9634 102.691 68.2443 102.644 68.4731 102.55C68.7124 102.446 68.8944 102.29 69.0192 102.082C69.1441 101.874 69.2065 101.63 69.2065 101.349C69.2065 101.078 69.1389 100.849 69.0036 100.662C68.8684 100.475 68.676 100.334 68.4263 100.241C68.1871 100.137 67.8958 100.085 67.5525 100.085H65.0716V102.691ZM65.0716 98.228H67.2873C67.5681 98.228 67.8126 98.176 68.0206 98.0719C68.2287 97.9679 68.3847 97.8275 68.4887 97.6507C68.6032 97.4738 68.6604 97.2658 68.6604 97.0265C68.6604 96.6416 68.5355 96.3452 68.2859 96.1371C68.0362 95.9291 67.6618 95.8251 67.1625 95.8251H65.0716V98.228Z" fill="#84C225"/>
<path d="M73.3778 104.719V102.706H75.2034V95.8095H73.3778V93.7966H79.3695V95.8095H77.5439V102.706H79.3695V104.719H73.3778Z" fill="#84C225"/>
<path d="M81.9327 104.719V93.7966H84.2732V102.613H89.2195V104.719H81.9327Z" fill="#84C225"/>
<path d="M91.3953 104.719V93.7966H93.7358V102.613H98.682V104.719H91.3953Z" fill="#84C225"/>
<path d="M105.642 104.719V93.7966H110.479C111.156 93.7966 111.769 93.9527 112.321 94.2647C112.872 94.5664 113.304 94.9773 113.616 95.4974C113.938 96.0175 114.099 96.6104 114.099 97.2762C114.099 97.9315 113.938 98.5296 113.616 99.0706C113.304 99.6011 112.872 100.022 112.321 100.334C111.769 100.646 111.156 100.803 110.479 100.803H107.905V104.719H105.642ZM111.837 104.719L109.06 99.7883L111.462 99.3982L114.552 104.735L111.837 104.719ZM107.905 98.8989H110.37C110.651 98.8989 110.896 98.8365 111.104 98.7117C111.322 98.5765 111.488 98.3944 111.603 98.1656C111.717 97.9263 111.775 97.6611 111.775 97.3698C111.775 97.0577 111.707 96.7873 111.572 96.5584C111.436 96.3296 111.239 96.1527 110.979 96.0279C110.719 95.8927 110.417 95.8251 110.074 95.8251H107.905V98.8989Z" fill="black"/>
<path d="M116.568 104.719V93.7966H123.948V95.8563H118.846V102.659H124.057V104.719H116.568ZM117.66 100.147V98.15H123.199V100.147H117.66Z" fill="black"/>
<path d="M131.262 104.875C130.462 104.875 129.723 104.74 129.047 104.469C128.381 104.188 127.799 103.798 127.299 103.299C126.81 102.789 126.431 102.191 126.16 101.505C125.89 100.808 125.755 100.048 125.755 99.2266C125.755 98.4256 125.895 97.6871 126.176 97.0109C126.457 96.3244 126.852 95.7314 127.362 95.2321C127.871 94.7224 128.469 94.3271 129.156 94.0463C129.843 93.7654 130.586 93.625 131.387 93.625C131.907 93.625 132.417 93.6978 132.916 93.8434C133.426 93.9787 133.889 94.1815 134.305 94.452C134.732 94.7224 135.096 95.0449 135.397 95.4194L133.931 97.0421C133.681 96.7925 133.421 96.5792 133.151 96.4024C132.89 96.2152 132.61 96.0747 132.308 95.9811C132.017 95.8771 131.705 95.8251 131.372 95.8251C130.924 95.8251 130.503 95.9083 130.108 96.0747C129.723 96.2412 129.385 96.4752 129.094 96.7769C128.802 97.0681 128.568 97.427 128.391 97.8535C128.225 98.2696 128.142 98.7325 128.142 99.2422C128.142 99.7623 128.225 100.236 128.391 100.662C128.558 101.078 128.792 101.437 129.094 101.739C129.395 102.03 129.754 102.259 130.17 102.425C130.597 102.581 131.065 102.659 131.575 102.659C131.907 102.659 132.23 102.613 132.542 102.519C132.854 102.425 133.14 102.295 133.4 102.129C133.671 101.962 133.91 101.77 134.118 101.551L135.257 103.377C135.007 103.658 134.669 103.913 134.243 104.142C133.827 104.37 133.359 104.553 132.838 104.688C132.318 104.813 131.793 104.875 131.262 104.875Z" fill="black"/>
<path d="M144.111 104.719V93.7966H146.452V104.719H144.111ZM137.23 104.719V93.7966H139.571V104.719H137.23ZM138.166 100.334L138.182 98.2124H145.313V100.334H138.166Z" fill="black"/>
<path d="M149.298 104.719V93.7966H151.389L157.428 101.957H156.991C156.949 101.635 156.913 101.323 156.881 101.021C156.85 100.709 156.819 100.397 156.788 100.085C156.767 99.7623 156.746 99.4346 156.725 99.1018C156.715 98.7585 156.705 98.3996 156.694 98.0251C156.684 97.6403 156.679 97.2242 156.679 96.7769V93.7966H158.972V104.719H156.85L150.687 96.4804L151.28 96.496C151.332 97.0369 151.373 97.4998 151.405 97.8847C151.446 98.2592 151.478 98.5869 151.498 98.8677C151.519 99.1486 151.535 99.393 151.545 99.6011C151.566 99.8091 151.576 100.007 151.576 100.194C151.587 100.381 151.592 100.579 151.592 100.787V104.719H149.298Z" fill="black"/>
<path d="M161.808 104.719V93.7966H169.189V95.8563H164.086V102.659H169.298V104.719H161.808ZM162.901 100.147V98.15H168.44V100.147H162.901Z" fill="black"/>
<path d="M171.713 104.719V93.7966H176.55C177.226 93.7966 177.84 93.9527 178.391 94.2647C178.942 94.5664 179.374 94.9773 179.686 95.4974C180.009 96.0175 180.17 96.6104 180.17 97.2762C180.17 97.9315 180.009 98.5296 179.686 99.0706C179.374 99.6011 178.942 100.022 178.391 100.334C177.84 100.646 177.226 100.803 176.55 100.803H173.975V104.719H171.713ZM177.907 104.719L175.13 99.7883L177.533 99.3982L180.622 104.735L177.907 104.719ZM173.975 98.8989H176.441C176.721 98.8989 176.966 98.8365 177.174 98.7117C177.392 98.5765 177.559 98.3944 177.673 98.1656C177.788 97.9263 177.845 97.6611 177.845 97.3698C177.845 97.0577 177.777 96.7873 177.642 96.5584C177.507 96.3296 177.309 96.1527 177.049 96.0279C176.789 95.8927 176.487 95.8251 176.144 95.8251H173.975V98.8989Z" fill="black"/>
<path d="M21.5 86.125L44.2061 72.7056C44.8149 72.3458 45.1885 71.6911 45.1885 70.9838L45.1885 41.5648H60.9655C63.0833 41.5648 65.0245 42.0943 66.7893 43.1531C68.5894 44.1767 70.0188 45.5885 71.0777 47.3886C72.1365 49.1533 72.666 51.1475 72.666 53.3711C72.666 55.383 72.1365 57.2536 71.0777 58.9831C70.0188 60.7126 68.607 62.1067 66.8422 63.1656C65.0775 64.1892 63.1186 64.701 60.9655 64.701H50.9064L50.8016 70.981C50.7898 71.6898 50.4037 72.3393 49.7867 72.6884L24.3322 87.0885C23.3358 87.6522 22.0705 87.2661 21.5586 86.2422L21.5 86.125ZM67.2128 78.625L57.789 61.895L63.6656 60.5714L74.1484 78.6779L67.2128 78.625ZM50.9064 59.1949H61.495C62.5185 59.1949 63.4362 58.9478 64.248 58.4537C65.0598 57.9242 65.6951 57.2183 66.154 56.3359C66.6128 55.4183 66.8422 54.4123 66.8422 53.3182C66.8422 52.0828 66.5422 51.0063 65.9422 50.0887C65.3775 49.1357 64.5657 48.3945 63.5068 47.865C62.4833 47.3356 61.3185 47.0709 60.0126 47.0709H50.9064V59.1949Z" fill="#84C225"/>
</svg>
