<svg width="282" height="38" viewBox="0 0 282 38" fill="none" xmlns="http://www.w3.org/2000/svg">
<path d="M56.2556 19.8249C57.543 25.4693 53.5713 30.4098 48.4665 30.9323C47.7736 31.0032 47.0846 31.0151 46.3926 31.0154C39.1144 31.0188 31.8361 31.0202 24.5578 31.0186C24.3071 31.0186 24.048 31.0693 23.7858 30.9458C23.7685 30.5742 24.069 30.3712 24.252 30.1223C25.4077 28.5505 25.4135 28.555 27.3547 28.5554C34.0492 28.5569 40.7439 28.533 47.4383 28.571C50.4346 28.588 53.2373 26.4245 53.9326 23.4003C54.8119 19.5755 52.0455 15.7121 48.1284 15.3663C48.1102 15.3647 48.0919 15.3648 48.0738 15.363C46.5746 15.2115 46.3378 14.9506 46.3335 13.4457C46.3178 7.99279 42.2805 3.3278 36.9067 2.5532C31.5236 1.77728 26.5291 4.85762 24.7991 10.0205C24.7702 10.1069 24.7399 10.1928 24.7115 10.2793C24.2154 11.7868 23.8932 12.0203 22.2713 12.0754C19.577 12.1669 17.4414 13.3302 15.8587 15.4921C15.5654 15.8928 15.269 16.0691 14.7782 16.0384C14.164 16 13.5456 16.0292 12.9603 16.0292C12.7877 15.726 12.9588 15.5456 13.0574 15.3661C14.8471 12.1057 17.5674 10.1754 21.2732 9.7256C22.0624 9.62981 22.4341 9.34814 22.7528 8.56909C24.6574 3.91234 28.1043 1.0458 33.0859 0.193378C40.4512 -1.06693 47.4219 3.97003 48.5762 11.3129C48.6355 11.69 48.7151 12.0749 48.6931 12.4507C48.6673 12.8892 48.8818 13.0078 49.245 13.0922C52.8947 13.9405 55.2363 16.1656 56.2556 19.8249Z" fill="#1A2420"/>
<path d="M7.23368 35.5233C7.03652 35.6103 6.9008 35.7631 6.69817 35.7054C6.39616 35.1086 6.43984 34.8385 6.97942 34.5247C9.07241 33.3075 11.1762 32.1088 13.274 30.9C13.8449 30.5711 13.9076 31.16 14.3189 31.4475C11.914 32.8311 9.59092 34.1675 7.23368 35.5233Z" fill="#84C225"/>
<path d="M2.35406 34.2543C1.90456 34.2364 1.72558 33.8089 1.97938 33.4253C2.05622 33.3091 2.17937 33.2107 2.30191 33.1397C4.1762 32.0538 6.05351 30.9731 7.93183 29.8942C8.03879 29.8327 8.1505 29.7571 8.28795 29.8003C8.49348 30.4187 8.35654 30.8087 7.83459 31.1085C6.0194 32.151 4.20479 33.1944 2.35406 34.2543Z" fill="#84C225"/>
<path d="M69.0945 21.3417L68.5014 18.8209L75.0628 12.2039H78.4362L69.0945 21.3417ZM67 25.1785V12.2039H69.7803V25.1785H67ZM75.415 25.1785L70.5588 18.7282L72.4679 17.0786L78.7142 25.1785H75.415Z" fill="#84C225"/>
<path d="M80.6661 25.1785V12.2039H83.4464V22.6762H89.322V25.1785H80.6661Z" fill="#84C225"/>
<path d="M91.9067 25.1785V12.2039H100.674V14.6505H94.6128V22.7318H100.804V25.1785H91.9067ZM93.2041 19.7477V17.3752H99.7841V19.7477H93.2041Z" fill="#84C225"/>
<path d="M107.361 25.1785L102.189 12.2039H105.136L107.843 19.2287C107.991 19.6118 108.114 19.9516 108.213 20.2481C108.325 20.5323 108.417 20.8042 108.491 21.0637C108.578 21.3108 108.658 21.558 108.732 21.8051C108.806 22.0399 108.881 22.2994 108.955 22.5836L108.417 22.6021C108.516 22.219 108.615 21.8669 108.714 21.5456C108.813 21.212 108.924 20.866 109.047 20.5076C109.171 20.1493 109.325 19.723 109.511 19.2287L112.069 12.2039H114.997L109.789 25.1785H107.361Z" fill="#84C225"/>
<path d="M116.886 25.1785V12.2039H125.653V14.6505H119.592V22.7318H125.783V25.1785H116.886ZM118.183 19.7477V17.3752H124.763V19.7477H118.183Z" fill="#84C225"/>
<path d="M128.651 25.1785V12.2039H134.397C135.2 12.2039 135.929 12.3892 136.584 12.7599C137.239 13.1183 137.752 13.6064 138.123 14.2242C138.506 14.842 138.697 15.5464 138.697 16.3372C138.697 17.1157 138.506 17.8262 138.123 18.4688C137.752 19.0989 137.239 19.5994 136.584 19.9701C135.929 20.3408 135.2 20.5262 134.397 20.5262H131.339V25.1785H128.651ZM136.01 25.1785L132.71 19.3214L135.565 18.858L139.235 25.197L136.01 25.1785ZM131.339 18.2649H134.267C134.601 18.2649 134.891 18.1907 135.139 18.0424C135.398 17.8818 135.596 17.6656 135.732 17.3937C135.868 17.1095 135.936 16.7944 135.936 16.4484C135.936 16.0777 135.855 15.7564 135.695 15.4846C135.534 15.2127 135.299 15.0027 134.99 14.8544C134.681 14.6938 134.323 14.6134 133.915 14.6134H131.339V18.2649Z" fill="#84C225"/>
<path d="M141.629 25.1785V12.2039H147.264C148.129 12.2039 148.858 12.3336 149.451 12.5931C150.057 12.8402 150.514 13.2048 150.823 13.6867C151.132 14.1686 151.286 14.7432 151.286 15.4104C151.286 16.1519 151.101 16.7697 150.73 17.264C150.36 17.7582 149.828 18.098 149.136 18.2834L149.118 17.9127C149.686 18.0486 150.187 18.271 150.619 18.58C151.052 18.8889 151.385 19.2719 151.62 19.7291C151.855 20.1863 151.972 20.7053 151.972 21.2861C151.972 21.9287 151.867 22.4971 151.657 22.9913C151.447 23.4733 151.138 23.8749 150.73 24.1961C150.322 24.5174 149.841 24.7645 149.285 24.9375C148.741 25.0982 148.129 25.1785 147.45 25.1785H141.629ZM144.299 22.7689H147.338C147.734 22.7689 148.067 22.7133 148.339 22.6021C148.623 22.4785 148.84 22.2932 148.988 22.046C149.136 21.7989 149.21 21.5085 149.21 21.1749C149.21 20.8536 149.13 20.5818 148.969 20.3593C148.809 20.1369 148.58 19.9701 148.284 19.8589C147.999 19.7353 147.653 19.6735 147.246 19.6735H144.299V22.7689ZM144.299 17.4679H146.931C147.264 17.4679 147.555 17.4061 147.802 17.2825C148.049 17.1589 148.234 16.9921 148.358 16.7821C148.494 16.572 148.562 16.3248 148.562 16.0406C148.562 15.5834 148.413 15.2313 148.117 14.9841C147.82 14.737 147.375 14.6134 146.782 14.6134H144.299V17.4679Z" fill="#84C225"/>
<path d="M154.166 25.1785V22.7875H156.334V14.5949H154.166V12.2039H161.283V14.5949H159.114V22.7875H161.283V25.1785H154.166Z" fill="#84C225"/>
<path d="M164.328 25.1785V12.2039H167.108V22.6762H172.984V25.1785H164.328Z" fill="#84C225"/>
<path d="M175.568 25.1785V12.2039H178.349V22.6762H184.224V25.1785H175.568Z" fill="#84C225"/>
<path d="M192.492 25.1785V12.2039H198.238C199.041 12.2039 199.77 12.3892 200.425 12.7599C201.08 13.1183 201.593 13.6064 201.964 14.2242C202.347 14.8421 202.538 15.5464 202.538 16.3372C202.538 17.1157 202.347 17.8262 201.964 18.4688C201.593 19.099 201.08 19.5994 200.425 19.9701C199.77 20.3408 199.041 20.5262 198.238 20.5262H195.18V25.1785H192.492ZM199.851 25.1785L196.551 19.3214L199.406 18.858L203.076 25.1971L199.851 25.1785ZM195.18 18.2649H198.108C198.442 18.2649 198.732 18.1908 198.98 18.0425C199.239 17.8818 199.437 17.6656 199.573 17.3937C199.709 17.1095 199.777 16.7944 199.777 16.4484C199.777 16.0777 199.696 15.7565 199.536 15.4846C199.375 15.2128 199.14 15.0027 198.831 14.8544C198.522 14.6938 198.164 14.6135 197.756 14.6135H195.18V18.2649Z" fill="black"/>
<path d="M205.47 25.1785V12.2039H214.238V14.6505H208.177V22.7319H214.367V25.1785H205.47ZM206.768 19.7477V17.3752H213.348V19.7477H206.768Z" fill="black"/>
<path d="M222.926 25.3639C221.975 25.3639 221.097 25.2032 220.294 24.882C219.503 24.5483 218.811 24.0849 218.218 23.4918C217.638 22.8863 217.187 22.1758 216.865 21.3603C216.544 20.5324 216.383 19.6303 216.383 18.6541C216.383 17.7027 216.55 16.8253 216.884 16.0221C217.217 15.2066 217.687 14.5023 218.292 13.9091C218.898 13.3036 219.608 12.8341 220.424 12.5005C221.24 12.1668 222.123 12 223.075 12C223.692 12 224.298 12.0865 224.891 12.2595C225.496 12.4201 226.046 12.6611 226.541 12.9824C227.047 13.3036 227.48 13.6867 227.838 14.1315L226.096 16.0592C225.799 15.7626 225.49 15.5093 225.169 15.2993C224.86 15.0768 224.526 14.91 224.168 14.7988C223.822 14.6752 223.451 14.6135 223.056 14.6135C222.525 14.6135 222.024 14.7123 221.555 14.91C221.097 15.1077 220.696 15.3858 220.35 15.7441C220.004 16.0901 219.726 16.5164 219.516 17.023C219.318 17.5173 219.219 18.0672 219.219 18.6727C219.219 19.2905 219.318 19.8527 219.516 20.3594C219.713 20.8536 219.991 21.28 220.35 21.6383C220.708 21.9843 221.134 22.2561 221.629 22.4538C222.135 22.6392 222.691 22.7319 223.297 22.7319C223.692 22.7319 224.075 22.6763 224.446 22.5651C224.817 22.4538 225.157 22.2994 225.466 22.1017C225.787 21.904 226.071 21.6754 226.318 21.4159L227.671 23.5845C227.375 23.9181 226.973 24.2209 226.466 24.4927C225.972 24.7646 225.416 24.9808 224.798 25.1415C224.18 25.2897 223.556 25.3639 222.926 25.3639Z" fill="black"/>
<path d="M238.189 25.1785V12.2039H240.969V25.1785H238.189ZM230.015 25.1785V12.2039H232.795V25.1785H230.015ZM231.127 19.9701L231.146 17.4493H239.616V19.9701H231.127Z" fill="black"/>
<path d="M244.351 25.1785V12.2039H246.835L254.008 21.8978H253.489C253.439 21.5147 253.396 21.144 253.359 20.7857C253.322 20.415 253.285 20.0443 253.248 19.6736C253.223 19.2905 253.198 18.9013 253.174 18.5059C253.161 18.0981 253.149 17.6718 253.137 17.2269C253.124 16.7697 253.118 16.2755 253.118 15.7441V12.2039H255.843V25.1785H253.322L246.001 15.3919L246.705 15.4105C246.767 16.053 246.816 16.6029 246.853 17.0601C246.903 17.505 246.94 17.8942 246.964 18.2278C246.989 18.5615 247.008 18.8518 247.02 19.099C247.045 19.3461 247.057 19.5809 247.057 19.8033C247.069 20.0257 247.076 20.2605 247.076 20.5077V25.1785H244.351Z" fill="black"/>
<path d="M259.212 25.1785V12.2039H267.979V14.6505H261.918V22.7319H268.109V25.1785H259.212ZM260.509 19.7477V17.3752H267.089V19.7477H260.509Z" fill="black"/>
<path d="M270.977 25.1785V12.2039H276.723C277.526 12.2039 278.255 12.3892 278.91 12.7599C279.565 13.1183 280.078 13.6064 280.449 14.2242C280.832 14.8421 281.023 15.5464 281.023 16.3372C281.023 17.1157 280.832 17.8262 280.449 18.4688C280.078 19.099 279.565 19.5994 278.91 19.9701C278.255 20.3408 277.526 20.5262 276.723 20.5262H273.665V25.1785H270.977ZM278.336 25.1785L275.036 19.3214L277.891 18.858L281.561 25.1971L278.336 25.1785ZM273.665 18.2649H276.593C276.927 18.2649 277.217 18.1908 277.464 18.0425C277.724 17.8818 277.922 17.6656 278.058 17.3937C278.193 17.1095 278.261 16.7944 278.261 16.4484C278.261 16.0777 278.181 15.7565 278.021 15.4846C277.86 15.2128 277.625 15.0027 277.316 14.8544C277.007 14.6938 276.649 14.6135 276.241 14.6135H273.665V18.2649Z" fill="black"/>
<path d="M0 36.5633L9.63955 30.8663C9.89804 30.7135 10.0566 30.4356 10.0566 30.1353L10.0566 17.6459H16.7546C17.6536 17.6459 18.4778 17.8706 19.227 18.3202C19.9912 18.7547 20.598 19.3541 21.0475 20.1183C21.4971 20.8675 21.7218 21.7141 21.7218 22.6581C21.7218 23.5122 21.4971 24.3063 21.0475 25.0406C20.598 25.7748 19.9986 26.3667 19.2494 26.8162C18.5002 27.2507 17.6686 27.468 16.7546 27.468H12.4841L12.4396 30.1341C12.4346 30.435 12.2707 30.7108 12.0087 30.859L1.20238 36.9723C0.779381 37.2116 0.242212 37.0477 0.0248691 36.613L0 36.5633ZM19.4068 33.3793L15.406 26.2768L17.9009 25.7149L22.3512 33.4017L19.4068 33.3793ZM12.4841 25.1305H16.9793C17.4139 25.1305 17.8035 25.0256 18.1481 24.8158C18.4927 24.591 18.7624 24.2914 18.9572 23.9168C19.152 23.5272 19.2494 23.1001 19.2494 22.6356C19.2494 22.1112 19.1221 21.6541 18.8673 21.2646C18.6276 20.86 18.283 20.5453 17.8334 20.3206C17.3989 20.0958 16.9044 19.9834 16.35 19.9834H12.4841V25.1305Z" fill="#84C225"/>
</svg>
