<svg width="180" height="180" viewBox="0 0 180 180" fill="none" xmlns="http://www.w3.org/2000/svg">
<rect width="180" height="180" rx="22.5" fill="#F9FAFB"/>
<path d="M156.01 86.6978C159.043 99.9931 149.688 111.631 137.663 112.861C136.031 113.028 134.408 113.056 132.778 113.057C115.634 113.065 98.49 113.068 81.346 113.065C80.7553 113.065 80.145 113.184 79.5274 112.893C79.4867 112.018 80.1945 111.54 80.6255 110.953C83.3478 107.251 83.3614 107.262 87.934 107.263C103.703 107.266 119.472 107.21 135.241 107.299C142.299 107.339 148.901 102.243 150.538 95.1196C152.61 86.1104 146.093 77.01 136.867 76.1955C136.824 76.1917 136.781 76.1919 136.738 76.1876C133.207 75.8309 132.649 75.2163 132.639 71.6714C132.602 58.8271 123.092 47.8387 110.434 46.0141C97.7539 44.1864 85.9894 51.4422 81.9142 63.6033C81.8461 63.8068 81.7748 64.0092 81.7078 64.213C80.5394 67.7639 79.7804 68.3139 75.96 68.4437C69.6135 68.6593 64.5831 71.3995 60.8551 76.4918C60.1642 77.4356 59.466 77.8509 58.3099 77.7787C56.8632 77.6883 55.4065 77.7569 54.0277 77.7569C53.6213 77.0426 54.0243 76.6178 54.2564 76.1949C58.4721 68.515 64.88 63.9682 73.6089 62.9087C75.4679 62.6831 76.3436 62.0196 77.0941 60.1846C81.5804 49.2155 89.6996 42.4634 101.434 40.4555C118.783 37.4868 135.202 49.3514 137.922 66.6478C138.061 67.5358 138.249 68.4425 138.197 69.3277C138.136 70.3607 138.641 70.6399 139.497 70.8388C148.094 72.8371 153.609 78.0783 156.01 86.6978Z" fill="#1A2420"/>
<path d="M40.5387 123.676C40.0743 123.88 39.7546 124.24 39.2773 124.104C38.5659 122.699 38.6688 122.062 39.9398 121.323C44.8699 118.456 49.8253 115.633 54.7668 112.785C56.1116 112.01 56.2593 113.398 57.228 114.075C51.5632 117.334 46.0912 120.482 40.5387 123.676Z" fill="#84C225"/>
<path d="M29.0447 120.686C27.9859 120.644 27.5643 119.637 28.1621 118.734C28.3431 118.46 28.6332 118.228 28.9219 118.061C33.3368 115.503 37.7588 112.957 42.1832 110.416C42.4351 110.271 42.6983 110.093 43.022 110.195C43.5062 111.652 43.1836 112.57 41.9541 113.276C37.6784 115.732 33.4041 118.19 29.0447 120.686Z" fill="#84C225"/>
<path d="M24.3108 137.472L23.9396 135.894L28.0462 131.753H30.1574L24.3108 137.472ZM23 139.873V131.753H24.7401V139.873H23ZM28.2666 139.873L25.2273 135.836L26.4221 134.804L30.3314 139.873H28.2666Z" fill="#84C225"/>
<path d="M31.553 139.873V131.753H33.2931V138.307H36.9704V139.873H31.553Z" fill="#84C225"/>
<path d="M38.588 139.873V131.753H44.075V133.284H40.2817V138.342H44.1562V139.873H38.588ZM39.4 136.474V134.989H43.5182V136.474H39.4Z" fill="#84C225"/>
<path d="M48.26 139.873L45.0235 131.753H46.868L48.5616 136.149C48.6544 136.389 48.7318 136.602 48.7936 136.787C48.8632 136.965 48.9212 137.135 48.9676 137.298C49.0218 137.452 49.072 137.607 49.1184 137.762C49.1648 137.909 49.2112 138.071 49.2576 138.249L48.9212 138.26C48.9831 138.021 49.045 137.8 49.1068 137.599C49.1687 137.39 49.2383 137.174 49.3156 136.95C49.393 136.725 49.4897 136.458 49.6057 136.149L51.2065 131.753H53.0394L49.7797 139.873H48.26Z" fill="#84C225"/>
<path d="M54.2213 139.873V131.753H59.7083V133.284H55.915V138.342H59.7895V139.873H54.2213ZM55.0334 136.474V134.989H59.1515V136.474H55.0334Z" fill="#84C225"/>
<path d="M61.5849 139.873V131.753H65.181C65.6837 131.753 66.1399 131.869 66.5498 132.101C66.9597 132.325 67.2806 132.63 67.5127 133.017C67.7524 133.404 67.8723 133.845 67.8723 134.339C67.8723 134.827 67.7524 135.271 67.5127 135.674C67.2806 136.068 66.9597 136.381 66.5498 136.613C66.1399 136.845 65.6837 136.961 65.181 136.961H63.2669V139.873H61.5849ZM66.1902 139.873L64.1253 136.207L65.9118 135.917L68.2087 139.884L66.1902 139.873ZM63.2669 135.546H65.0998C65.3086 135.546 65.4903 135.5 65.645 135.407C65.8074 135.306 65.9311 135.171 66.0162 135.001C66.1013 134.823 66.1438 134.626 66.1438 134.409C66.1438 134.177 66.0935 133.976 65.993 133.806C65.8925 133.636 65.7455 133.504 65.5522 133.411C65.3589 133.311 65.1346 133.261 64.8794 133.261H63.2669V135.546Z" fill="#84C225"/>
<path d="M69.7074 139.873V131.753H73.2339C73.7753 131.753 74.2315 131.834 74.6028 131.996C74.9817 132.151 75.2678 132.379 75.4612 132.681C75.6545 132.982 75.7512 133.342 75.7512 133.759C75.7512 134.223 75.6352 134.61 75.4032 134.92C75.1712 135.229 74.8386 135.442 74.4055 135.558L74.3939 135.326C74.7497 135.411 75.0629 135.55 75.3336 135.743C75.6043 135.936 75.8131 136.176 75.96 136.462C76.1069 136.749 76.1804 137.073 76.1804 137.437C76.1804 137.839 76.1147 138.195 75.9832 138.504C75.8517 138.806 75.6584 139.057 75.4032 139.258C75.148 139.459 74.8464 139.614 74.4984 139.722C74.1581 139.823 73.7753 139.873 73.3499 139.873H69.7074ZM71.3778 138.365H73.2803C73.5278 138.365 73.7366 138.33 73.9067 138.26C74.0846 138.183 74.2199 138.067 74.3127 137.912C74.4055 137.758 74.452 137.576 74.452 137.367C74.452 137.166 74.4017 136.996 74.3011 136.857C74.2006 136.718 74.0575 136.613 73.8719 136.544C73.6941 136.466 73.4775 136.428 73.2223 136.428H71.3778V138.365ZM71.3778 135.047H73.0251C73.2339 135.047 73.4156 135.008 73.5703 134.931C73.725 134.854 73.841 134.749 73.9183 134.618C74.0034 134.486 74.0459 134.332 74.0459 134.154C74.0459 133.868 73.9531 133.647 73.7675 133.493C73.5819 133.338 73.3035 133.261 72.9323 133.261H71.3778V135.047Z" fill="#84C225"/>
<path d="M77.5532 139.873V138.376H78.9104V133.249H77.5532V131.753H82.0077V133.249H80.6505V138.376H82.0077V139.873H77.5532Z" fill="#84C225"/>
<path d="M83.9133 139.873V131.753H85.6534V138.307H89.3307V139.873H83.9133Z" fill="#84C225"/>
<path d="M90.9483 139.873V131.753H92.6884V138.307H96.3657V139.873H90.9483Z" fill="#84C225"/>
<path d="M101.54 139.873V131.753H105.137C105.639 131.753 106.096 131.869 106.505 132.101C106.915 132.325 107.236 132.63 107.468 133.017C107.708 133.404 107.828 133.845 107.828 134.339C107.828 134.827 107.708 135.271 107.468 135.674C107.236 136.068 106.915 136.381 106.505 136.613C106.096 136.845 105.639 136.961 105.137 136.961H103.223V139.873H101.54ZM106.146 139.873L104.081 136.207L105.867 135.917L108.164 139.884L106.146 139.873ZM103.223 135.546H105.055C105.264 135.546 105.446 135.5 105.601 135.407C105.763 135.306 105.887 135.171 105.972 135.001C106.057 134.823 106.099 134.626 106.099 134.409C106.099 134.177 106.049 133.976 105.949 133.806C105.848 133.636 105.701 133.504 105.508 133.411C105.314 133.311 105.09 133.261 104.835 133.261H103.223V135.546Z" fill="black"/>
<path d="M109.663 139.873V131.753H115.15V133.284H111.357V138.342H115.231V139.873H109.663ZM110.475 136.474V134.989H114.593V136.474H110.475Z" fill="black"/>
<path d="M120.588 139.989C119.992 139.989 119.443 139.888 118.941 139.687C118.446 139.478 118.013 139.188 117.641 138.817C117.278 138.438 116.996 137.994 116.795 137.483C116.593 136.965 116.493 136.4 116.493 135.79C116.493 135.194 116.597 134.645 116.806 134.142C117.015 133.632 117.309 133.191 117.688 132.82C118.067 132.441 118.511 132.147 119.022 131.938C119.532 131.729 120.085 131.625 120.681 131.625C121.067 131.625 121.446 131.679 121.817 131.787C122.196 131.888 122.541 132.039 122.85 132.24C123.167 132.441 123.438 132.681 123.662 132.959L122.572 134.165C122.386 133.98 122.193 133.821 121.991 133.69C121.798 133.551 121.589 133.446 121.365 133.377C121.149 133.299 120.917 133.261 120.669 133.261C120.336 133.261 120.023 133.323 119.729 133.446C119.443 133.57 119.192 133.744 118.975 133.968C118.759 134.185 118.585 134.452 118.453 134.769C118.33 135.078 118.268 135.422 118.268 135.801C118.268 136.188 118.33 136.54 118.453 136.857C118.577 137.166 118.751 137.433 118.975 137.657C119.2 137.874 119.466 138.044 119.776 138.168C120.093 138.284 120.441 138.342 120.82 138.342C121.067 138.342 121.307 138.307 121.539 138.237C121.771 138.168 121.984 138.071 122.177 137.947C122.378 137.823 122.556 137.68 122.711 137.518L123.558 138.875C123.372 139.084 123.121 139.274 122.804 139.444C122.494 139.614 122.146 139.749 121.759 139.85C121.373 139.942 120.982 139.989 120.588 139.989Z" fill="black"/>
<path d="M130.14 139.873V131.753H131.88V139.873H130.14ZM125.024 139.873V131.753H126.765V139.873H125.024ZM125.72 136.613L125.732 135.036H131.033V136.613H125.72Z" fill="black"/>
<path d="M133.997 139.873V131.753H135.551L140.04 137.82H139.716C139.685 137.58 139.658 137.348 139.634 137.124C139.611 136.892 139.588 136.66 139.565 136.428C139.549 136.188 139.534 135.944 139.518 135.697C139.511 135.442 139.503 135.175 139.495 134.896C139.487 134.61 139.484 134.301 139.484 133.968V131.753H141.189V139.873H139.611L135.029 133.748L135.47 133.759C135.509 134.162 135.539 134.506 135.563 134.792C135.594 135.07 135.617 135.314 135.632 135.523C135.648 135.732 135.659 135.913 135.667 136.068C135.683 136.223 135.69 136.37 135.69 136.509C135.698 136.648 135.702 136.795 135.702 136.95V139.873H133.997Z" fill="black"/>
<path d="M143.297 139.873V131.753H148.784V133.284H144.991V138.342H148.865V139.873H143.297ZM144.109 136.474V134.989H148.227V136.474H144.109Z" fill="black"/>
<path d="M150.661 139.873V131.753H154.257C154.76 131.753 155.216 131.869 155.626 132.101C156.036 132.325 156.357 132.63 156.589 133.017C156.828 133.404 156.948 133.845 156.948 134.339C156.948 134.827 156.828 135.271 156.589 135.674C156.357 136.068 156.036 136.381 155.626 136.613C155.216 136.845 154.76 136.961 154.257 136.961H152.343V139.873H150.661ZM155.266 139.873L153.201 136.207L154.988 135.917L157.285 139.884L155.266 139.873ZM152.343 135.546H154.176C154.385 135.546 154.566 135.5 154.721 135.407C154.883 135.306 155.007 135.171 155.092 135.001C155.177 134.823 155.22 134.626 155.22 134.409C155.22 134.177 155.17 133.976 155.069 133.806C154.968 133.636 154.821 133.504 154.628 133.411C154.435 133.311 154.211 133.261 153.955 133.261H152.343V135.546Z" fill="black"/>
<path d="M23.5 126.125L46.2061 112.706C46.8149 112.346 47.1885 111.691 47.1885 110.984L47.1885 81.5648H62.9655C65.0833 81.5648 67.0245 82.0943 68.7893 83.1531C70.5894 84.1767 72.0188 85.5885 73.0777 87.3886C74.1365 89.1533 74.666 91.1475 74.666 93.3711C74.666 95.383 74.1365 97.2536 73.0777 98.9831C72.0188 100.713 70.607 102.107 68.8422 103.166C67.0775 104.189 65.1186 104.701 62.9655 104.701H52.9064L52.8016 110.981C52.7898 111.69 52.4037 112.339 51.7867 112.688L26.3322 127.088C25.3358 127.652 24.0705 127.266 23.5586 126.242L23.5 126.125ZM69.2128 118.625L59.789 101.895L65.6656 100.571L76.1484 118.678L69.2128 118.625ZM52.9064 99.1949H63.495C64.5185 99.1949 65.4362 98.9478 66.248 98.4537C67.0598 97.9242 67.6951 97.2183 68.154 96.3359C68.6128 95.4183 68.8422 94.4123 68.8422 93.3182C68.8422 92.0828 68.5422 91.0063 67.9422 90.0887C67.3775 89.1357 66.5657 88.3945 65.5068 87.865C64.4833 87.3356 63.3185 87.0709 62.0126 87.0709H52.9064V99.1949Z" fill="#84C225"/>
</svg>
